<svg width="33" height="33" viewBox="0 0 33 33" fill="none" xmlns="http://www.w3.org/2000/svg">
<g clip-path="url(#clip0_5_198)">
<path d="M16.0521 0C20.3094 0 24.3923 1.6912 27.4026 4.70155C30.413 7.7119 32.1042 11.7948 32.1042 16.0521C32.1042 20.3094 30.413 24.3923 27.4026 27.4026C24.3923 30.413 20.3094 32.1042 16.0521 32.1042C11.7948 32.1042 7.7119 30.413 4.70155 27.4026C1.6912 24.3923 0 20.3094 0 16.0521C0 11.7948 1.6912 7.7119 4.70155 4.70155C7.7119 1.6912 11.7948 0 16.0521 0ZM14.5472 7.52442V16.0521C14.5472 16.5537 14.798 17.024 15.2181 17.3062L21.2377 21.3192C21.9274 21.7832 22.8617 21.5951 23.3257 20.8991C23.7897 20.2031 23.6016 19.275 22.9056 18.811L17.557 15.2495V7.52442C17.557 6.69046 16.886 6.01953 16.0521 6.01953C15.2181 6.01953 14.5472 6.69046 14.5472 7.52442Z" fill="#FFAB5E"/>
</g>
<defs>
<clipPath id="clip0_5_198">
<path d="M0 0H32.1042V32.1042H0V0Z" fill="white"/>
</clipPath>
</defs>
</svg>
